<svg id="Layer_5" enable-background="new 0 0 64 64" height="512" viewBox="0 0 64 64" width="512" xmlns="http://www.w3.org/2000/svg"><g><g><g><path d="m41 26v2c0 1.1-.9 2-2 2h-4-6-4c-1.1 0-2-.9-2-2v-2z" fill="#d3a06c"/></g><g><path d="m50 22v2c0 1.1-.9 2-2 2h-7-18-7c-1.1 0-2-.9-2-2v-2c0-1.1.9-2 2-2h9 11 10 2c1.1 0 2 .9 2 2z" fill="#b27946"/></g><g><path d="m55 48h6v14h-6z" fill="#969faa"/></g><g><path d="m61 42v6h-6-8-6-2v-2c0-2.21 1.79-4 4-4h12z" fill="#969faa"/></g><g><path d="m61 20v22h-6v-18c0-2.21 1.79-4 4-4z" fill="#969faa"/></g><g><path d="m41 48h6v14h-6z" fill="#969faa"/></g><g><path d="m46 9.24v10.76h-10v-10.76c0-.79.32-1.56.88-2.12l1.12-1.12v-4h6v4l1.12 1.12c.56.56.88 1.33.88 2.12z" fill="#69d6f4"/></g><g><path d="m29 30h6v32h-6z" fill="#cf9e76"/></g><g><path d="m32 12v1c0 3.87-3.13 7-7 7s-7-3.13-7-7v-1h4 6z" fill="#ffeaa7"/></g><g><path d="m28 10v2h-6v-2c0-1.1.9-2 2-2h2c1.1 0 2 .9 2 2z" fill="#fcd770"/></g><g><path d="m25 46v2h-2-6-8-6v-6h6 12c2.21 0 4 1.79 4 4z" fill="#969faa"/></g><g><path d="m17 48h6v14h-6z" fill="#969faa"/></g><g><path d="m3 48h6v14h-6z" fill="#969faa"/></g><g><path d="m9 24v18h-6v-22h2c2.21 0 4 1.79 4 4z" fill="#969faa"/></g></g><path d="m62 61v-42h-3c-2.757 0-5 2.243-5 5v17h-11c-2.757 0-5 2.243-5 5v3h2v12h-4v-30h3c1.654 0 3-1.346 3-3v-1h6c1.654 0 3-1.346 3-3v-2c0-1.654-1.346-3-3-3h-1v-9.757c0-1.068-.416-2.073-1.172-2.829l-.828-.828v-2.586h2v-2h-12v2h2v2.586l-.828.828c-.756.755-1.172 1.76-1.172 2.829v9.757h-4.726c1.667-1.467 2.726-3.61 2.726-6v-2h-4v-1c0-1.654-1.346-3-3-3h-2c-1.654 0-3 1.346-3 3v1h-4v2c0 2.39 1.059 4.533 2.726 6h-3.726c-1.654 0-3 1.346-3 3v2c0 1.654 1.346 3 3 3h6v1c0 1.654 1.346 3 3 3h3v30h-4v-12h2v-3c0-2.757-2.243-5-5-5h-11v-17c0-2.757-2.243-5-5-5h-3v42h-1v2h62v-2zm-8-12v12h-6v-12zm2 0h4v12h-4zm0-25c0-1.654 1.346-3 3-3h1v20h-4zm-16 22c0-1.654 1.346-3 3-3h17v4h-20zm2 3h4v12h-4zm-5-39.757c0-.534.208-1.037.586-1.415l1.414-1.414v-3.414h4v3.414l1.414 1.414c.378.378.586.88.586 1.415v9.757h-8zm-14 .757c0-.551.449-1 1-1h2c.551 0 1 .449 1 1v1h-4zm-4 3h12c0 3.309-2.691 6-6 6s-6-2.691-6-6zm-4 11v-2c0-.551.449-1 1-1h32c.551 0 1 .449 1 1v2c0 .551-.449 1-1 1h-32c-.551 0-1-.449-1-1zm9 4v-1h16v1c0 .551-.449 1-1 1h-14c-.551 0-1-.449-1-1zm6 3h4v30h-4zm-8 30h-4v-12h4zm-6-12v12h-6v-12zm8-3v1h-20v-4h17c1.654 0 3 1.346 3 3zm-19-25c1.654 0 3 1.346 3 3v17h-4v-20zm-1 28h4v12h-4z"/></g></svg>